<svg xmlns="http://www.w3.org/2000/svg" width="44.946" height="47.701" viewBox="0 0 44.946 47.701"><defs><style>.a{fill:#161615;}</style></defs><g transform="translate(-70.488 -52.529)"><g transform="translate(70.488 52.529)"><path class="a" d="M124.917,56.42c1.1-3.035,3.934-4.657,7.028-3.535a4.6,4.6,0,0,1,3.27,5.406l-2.638-.957a1.984,1.984,0,0,0-1.3-2.244c-1.627-.59-2.914.358-3.626,2.322-.7,1.925-.392,3.494,1.255,4.092a2.021,2.021,0,0,0,2.669-.985l2.6.943a4.535,4.535,0,0,1-5.993,2.226A5.384,5.384,0,0,1,124.917,56.42Z" transform="translate(-101.706 -52.529)"/><path class="a" d="M152.755,74.095l.033.054a2.841,2.841,0,0,1,2.964,1.32,1.886,1.886,0,0,1,.276.622l-2.152,1.3-.033-.054c-.807-1.707-2.354-2.353-4.306-1.176l-4.52,2.723-1.482-2.459,9.276-5.588,1.427,2.369Z" transform="translate(-112.699 -63.106)"/><path class="a" d="M156.22,96.572c3.182.41,5.374,2.885,4.969,6.025-.445,3.454-3.321,4.956-7.152,4.463l1-7.788c-1.681,0-2.825.785-3.033,2.4a2.021,2.021,0,0,0,1.052,2.243l-.362,2.805c-1.854-.643-3.247-2.547-2.89-5.31C150.267,97.848,153.017,96.159,156.22,96.572Zm.784,3-.615,4.774a2.284,2.284,0,0,0,2.6-1.985A2.411,2.411,0,0,0,157,99.567Z" transform="translate(-116.292 -77.944)"/><path class="a" d="M133.488,125.749l.034-.025a3.32,3.32,0,0,1,1.681-3.074c1.776-1.326,3.722-1.331,5.01.394,1.427,1.911.326,3.681-1.4,5.392-1.285,1.277-1.856,1.887-1.364,2.547.467.626,1.261.665,2.224-.055,1.082-.808,1.316-1.589.764-2.468l2.046-1.529c1.07,1.572.934,3.755-1.6,5.65-2.6,1.945-4.523,1.562-6.039-.467l-3.3-4.413c-.493-.659-.884-.973-1.2-.973l-.064-.084,2.215-1.655A2.942,2.942,0,0,1,133.488,125.749Zm1.55,2.109.973,1.3a7.993,7.993,0,0,1,1.227-1.707c1-1.168,1.388-1.88.782-2.692s-1.362-.695-2.174-.089C134.527,125.659,134.406,127.013,135.037,127.859Z" transform="translate(-105.041 -92.499)"/><path class="a" d="M121.888,142.652l-1.5-.012-.027,3.378-2.808-.022.027-3.377-1.857-.015.015-1.9,1.857.015.046-5.742a.95.95,0,0,0-1.068-1.085c-.358,0-.844.014-.844.014l.017-2.111s.655-.037,1.795-.028c1.393.011,2.93.572,2.914,2.619l-.051,6.354,1.5.012Z" transform="translate(-96.629 -98.317)"/><path class="a" d="M93.676,141.966l-2.554-1.312,1.176-2.291,2.554,1.311Zm1.948-3.793-2.554-1.312,4.947-9.632,2.554,1.312Z" transform="translate(-82.412 -95.695)"/><path class="a" d="M82.022,120.015c-2.833,1.506-6.052.756-7.538-2.04-1.635-3.074-.158-5.963,3.252-7.776l3.685,6.932c1.373-.969,1.85-2.274,1.087-3.709a2.021,2.021,0,0,0-2.155-1.22l-1.328-2.5c1.884-.548,4.121.2,5.429,2.659C86.139,115.532,84.873,118.5,82.022,120.015Zm-2.372-1.989-2.259-4.249a2.284,2.284,0,0,0-.97,3.121A2.411,2.411,0,0,0,79.65,118.026Z" transform="translate(-72.411 -85.471)"/><path class="a" d="M76.734,90.864l.759-2.548a2.082,2.082,0,0,0,2.394-1.754c.361-1.213.1-2.04-.627-2.256-.991-.3-1.484.99-2.189,2.321-.918,1.752-1.965,3.422-4.231,2.747-2.245-.668-2.763-2.848-2.058-5.215.813-2.73,2.62-3.844,4.763-3.426L74.8,83.221c-1.149-.21-1.764.377-2.113,1.551-.319,1.072-.125,1.9.623,2.123.89.265,1.38-1.086,2.123-2.472.882-1.631,1.94-3.408,4.367-2.685,2.083.62,2.807,2.773,2.036,5.362C80.943,90.113,78.987,91.358,76.734,90.864Z" transform="translate(-70.488 -68.778)"/><path class="a" d="M97.325,77.35l2.318-2.03,2.017,2.3-2.318,2.03Z" transform="translate(-85.996 -65.699)"/></g></g></svg>